<?xml version="1.0" encoding="UTF-8"?>
<!--Generator: Apple Native CoreSVG 232.5-->
<!DOCTYPE svg
PUBLIC "-//W3C//DTD SVG 1.1//EN"
       "http://www.w3.org/Graphics/SVG/1.1/DTD/svg11.dtd">
<svg version="1.1" xmlns="http://www.w3.org/2000/svg" xmlns:xlink="http://www.w3.org/1999/xlink" width="3300" height="2200">
 <!--glyph: "", point size: 100.0, font version: "19.2d2e1", template writer version: "128"-->
 <style>.monochrome-0 {-sfsymbols-motion-group:1;-sfsymbols-indices:3}
.monochrome-1 {opacity:0.0;-sfsymbols-clear-behind:true;-sfsymbols-motion-group:1;-sfsymbols-always-pulses:true}
.monochrome-2 {opacity:0.0;-sfsymbols-clear-behind:true;-sfsymbols-motion-group:0;-sfsymbols-indices:0}
.monochrome-3 {-sfsymbols-motion-group:0;-sfsymbols-always-pulses:true;-sfsymbols-indices:1}
.monochrome-4 {opacity:0.0;-sfsymbols-clear-behind:true;-sfsymbols-motion-group:0;-sfsymbols-always-pulses:true;-sfsymbols-indices:2}

.multicolor-0:tintColor {-sfsymbols-motion-group:1;-sfsymbols-indices:3}
.multicolor-1:white {-sfsymbols-motion-group:1;-sfsymbols-always-pulses:true}
.multicolor-2:tintColor {opacity:0.0;-sfsymbols-clear-behind:true;-sfsymbols-motion-group:0;-sfsymbols-indices:0}
.multicolor-3:systemGreenColor {-sfsymbols-motion-group:0;-sfsymbols-always-pulses:true;-sfsymbols-indices:1}
.multicolor-4:white {-sfsymbols-motion-group:0;-sfsymbols-always-pulses:true;-sfsymbols-indices:2}

.hierarchical-0:secondary {-sfsymbols-motion-group:1;-sfsymbols-indices:3}
.hierarchical-1:primary {-sfsymbols-motion-group:1}
.hierarchical-2:primary {opacity:0.0;-sfsymbols-clear-behind:true;-sfsymbols-motion-group:0;-sfsymbols-indices:0}
.hierarchical-3:primary {-sfsymbols-motion-group:0;-sfsymbols-indices:1}
.hierarchical-4:primary {opacity:0.0;-sfsymbols-clear-behind:true;-sfsymbols-motion-group:0;-sfsymbols-indices:2}

.shapeGroupLayer-0 {-sfsymbols-fill-action:erase;-sfsymbols-indices:4 5}
.shapeGroupLayer-1 {-sfsymbols-fill-action:draw;-sfsymbols-indices:6 7 8}

.SFSymbolsPreviewWireframe {fill:none;opacity:1.0;stroke:black;stroke-width:0.5}
</style>
 <g id="Notes">
  <rect height="2200" id="artboard" style="fill:white;opacity:1" width="3300" x="0" y="0"/>
  <line style="fill:none;stroke:black;opacity:1;stroke-width:0.5;" x1="263" x2="3036" y1="292" y2="292"/>
  <text style="stroke:none;fill:black;font-family:sans-serif;font-size:13;font-weight:bold;" transform="matrix(1 0 0 1 263 322)">Weight/Scale Variations</text>
  <text style="stroke:none;fill:black;font-family:sans-serif;font-size:13;text-anchor:middle;" transform="matrix(1 0 0 1 559.711 322)">Ultralight</text>
  <text style="stroke:none;fill:black;font-family:sans-serif;font-size:13;text-anchor:middle;" transform="matrix(1 0 0 1 856.422 322)">Thin</text>
  <text style="stroke:none;fill:black;font-family:sans-serif;font-size:13;text-anchor:middle;" transform="matrix(1 0 0 1 1153.13 322)">Light</text>
  <text style="stroke:none;fill:black;font-family:sans-serif;font-size:13;text-anchor:middle;" transform="matrix(1 0 0 1 1449.84 322)">Regular</text>
  <text style="stroke:none;fill:black;font-family:sans-serif;font-size:13;text-anchor:middle;" transform="matrix(1 0 0 1 1746.56 322)">Medium</text>
  <text style="stroke:none;fill:black;font-family:sans-serif;font-size:13;text-anchor:middle;" transform="matrix(1 0 0 1 2043.27 322)">Semibold</text>
  <text style="stroke:none;fill:black;font-family:sans-serif;font-size:13;text-anchor:middle;" transform="matrix(1 0 0 1 2339.98 322)">Bold</text>
  <text style="stroke:none;fill:black;font-family:sans-serif;font-size:13;text-anchor:middle;" transform="matrix(1 0 0 1 2636.69 322)">Heavy</text>
  <text style="stroke:none;fill:black;font-family:sans-serif;font-size:13;text-anchor:middle;" transform="matrix(1 0 0 1 2933.4 322)">Black</text>
  <line style="fill:none;stroke:black;opacity:1;stroke-width:0.5;" x1="263" x2="3036" y1="1903" y2="1903"/>
  <g transform="matrix(0.2 0 0 0.2 263 1933)">
   <path d="m46.2402 4.15039c21.5332 0 39.4531-17.8711 39.4531-39.4043s-17.9688-39.4043-39.502-39.4043c-21.4844 0-39.3555 17.8711-39.3555 39.4043s17.9199 39.4043 39.4043 39.4043Zm0-7.42188c-17.7246 0-31.8848-14.209-31.8848-31.9824s14.1113-31.9824 31.8359-31.9824c17.7734 0 32.0312 14.209 32.0312 31.9824s-14.209 31.9824-31.9824 31.9824Zm-17.9688-31.9824c0 2.14844 1.51367 3.61328 3.75977 3.61328h10.498v10.5957c0 2.19727 1.46484 3.71094 3.61328 3.71094 2.24609 0 3.71094-1.51367 3.71094-3.71094v-10.5957h10.5957c2.19727 0 3.71094-1.46484 3.71094-3.61328 0-2.19727-1.51367-3.71094-3.71094-3.71094h-10.5957v-10.5469c0-2.24609-1.46484-3.75977-3.71094-3.75977-2.14844 0-3.61328 1.51367-3.61328 3.75977v10.5469h-10.498c-2.24609 0-3.75977 1.51367-3.75977 3.71094Z"/>
  </g>
  <g transform="matrix(0.2 0 0 0.2 281.506 1933)">
   <path d="m58.5449 14.5508c27.2461 0 49.8047-22.6074 49.8047-49.8047 0-27.2461-22.6074-49.8047-49.8535-49.8047-27.1973 0-49.7559 22.5586-49.7559 49.8047 0 27.1973 22.6074 49.8047 49.8047 49.8047Zm0-8.30078c-23.0469 0-41.4551-18.457-41.4551-41.5039s18.3594-41.5039 41.4062-41.5039 41.5527 18.457 41.5527 41.5039-18.457 41.5039-41.5039 41.5039Zm-22.6562-41.5039c0 2.39258 1.66016 4.00391 4.15039 4.00391h14.3555v14.4043c0 2.44141 1.66016 4.15039 4.05273 4.15039 2.44141 0 4.15039-1.66016 4.15039-4.15039v-14.4043h14.4043c2.44141 0 4.15039-1.61133 4.15039-4.00391 0-2.44141-1.70898-4.15039-4.15039-4.15039h-14.4043v-14.3555c0-2.49023-1.70898-4.19922-4.15039-4.19922-2.39258 0-4.05273 1.70898-4.05273 4.19922v14.3555h-14.3555c-2.49023 0-4.15039 1.70898-4.15039 4.15039Z"/>
  </g>
  <g transform="matrix(0.2 0 0 0.2 304.924 1933)">
   <path d="m74.8535 28.3203c34.8145 0 63.623-28.8086 63.623-63.5742 0-34.8145-28.8574-63.623-63.6719-63.623-34.7656 0-63.5254 28.8086-63.5254 63.623 0 34.7656 28.8086 63.5742 63.5742 63.5742Zm0-9.08203c-30.1758 0-54.4434-24.3164-54.4434-54.4922 0-30.2246 24.2188-54.4922 54.3945-54.4922 30.2246 0 54.541 24.2676 54.541 54.4922 0 30.1758-24.2676 54.4922-54.4922 54.4922Zm-28.8574-54.4922c0 2.58789 1.85547 4.39453 4.58984 4.39453h19.7266v19.7754c0 2.68555 1.85547 4.58984 4.44336 4.58984 2.68555 0 4.54102-1.85547 4.54102-4.58984v-19.7754h19.7754c2.68555 0 4.58984-1.80664 4.58984-4.39453 0-2.73438-1.85547-4.58984-4.58984-4.58984h-19.7754v-19.7266c0-2.73438-1.85547-4.63867-4.54102-4.63867-2.58789 0-4.44336 1.9043-4.44336 4.63867v19.7266h-19.7266c-2.73438 0-4.58984 1.85547-4.58984 4.58984Z"/>
  </g>
  <text style="stroke:none;fill:black;font-family:sans-serif;font-size:13;font-weight:bold;" transform="matrix(1 0 0 1 263 1953)">Design Variations</text>
  <text style="stroke:none;fill:black;font-family:sans-serif;font-size:13;" transform="matrix(1 0 0 1 263 1971)">Symbols are supported in up to nine weights and three scales.</text>
  <text style="stroke:none;fill:black;font-family:sans-serif;font-size:13;" transform="matrix(1 0 0 1 263 1989)">For optimal layout with text and other symbols, vertically align</text>
  <text style="stroke:none;fill:black;font-family:sans-serif;font-size:13;" transform="matrix(1 0 0 1 263 2007)">symbols with the adjacent text.</text>
  <line style="fill:none;stroke:#00AEEF;stroke-width:0.5;opacity:1.0;" x1="776" x2="776" y1="1919" y2="1933"/>
  <g transform="matrix(0.2 0 0 0.2 776 1933)">
   <path d="m16.5527 0.78125c2.58789 0 3.85742-0.976562 4.78516-3.71094l6.29883-17.2363h28.8086l6.29883 17.2363c0.927734 2.73438 2.19727 3.71094 4.73633 3.71094 2.58789 0 4.24805-1.5625 4.24805-4.00391 0-0.830078-0.146484-1.61133-0.537109-2.63672l-22.9004-60.9863c-1.12305-2.97852-3.125-4.49219-6.25-4.49219-3.02734 0-5.07812 1.46484-6.15234 4.44336l-22.9004 61.084c-0.390625 1.02539-0.537109 1.80664-0.537109 2.63672 0 2.44141 1.5625 3.95508 4.10156 3.95508Zm13.4766-28.3691 11.8652-32.8613h0.244141l11.8652 32.8613Z"/>
  </g>
  <line style="fill:none;stroke:#00AEEF;stroke-width:0.5;opacity:1.0;" x1="792.836" x2="792.836" y1="1919" y2="1933"/>
  <text style="stroke:none;fill:black;font-family:sans-serif;font-size:13;font-weight:bold;" transform="matrix(1 0 0 1 776 1953)">Margins</text>
  <text style="stroke:none;fill:black;font-family:sans-serif;font-size:13;" transform="matrix(1 0 0 1 776 1971)">Leading and trailing margins on the left and right side of each symbol</text>
  <text style="stroke:none;fill:black;font-family:sans-serif;font-size:13;" transform="matrix(1 0 0 1 776 1989)">can be adjusted by modifying the x-location of the margin guidelines.</text>
  <text style="stroke:none;fill:black;font-family:sans-serif;font-size:13;" transform="matrix(1 0 0 1 776 2007)">Modifications are automatically applied proportionally to all</text>
  <text style="stroke:none;fill:black;font-family:sans-serif;font-size:13;" transform="matrix(1 0 0 1 776 2025)">scales and weights.</text>
  <g transform="matrix(0.2 0 0 0.2 1289 1933)">
   <path d="m14.209 9.32617 8.49609 8.54492c4.29688 4.3457 9.22852 4.05273 13.8672-1.07422l53.4668-58.9355-4.83398-4.88281-53.0762 58.3984c-1.75781 2.00195-3.41797 2.49023-5.76172 0.146484l-5.85938-5.81055c-2.34375-2.29492-1.80664-4.00391 0.195312-5.81055l57.373-54.0039-4.88281-4.83398-57.959 54.4434c-4.93164 4.58984-5.32227 9.47266-1.02539 13.8184Zm32.0801-90.9668c-2.09961 2.05078-2.24609 4.93164-1.07422 6.88477 1.17188 1.80664 3.4668 2.97852 6.68945 2.14844 7.32422-1.70898 14.9414-2.00195 22.0703 2.68555l-2.92969 7.27539c-1.70898 4.15039-0.830078 7.08008 1.85547 9.81445l11.4746 11.5723c2.44141 2.44141 4.49219 2.53906 7.32422 2.05078l5.32227-0.976562 3.32031 3.36914-0.195312 2.7832c-0.195312 2.49023 0.439453 4.39453 2.88086 6.78711l3.80859 3.71094c2.39258 2.39258 5.46875 2.53906 7.8125 0.195312l14.5508-14.5996c2.34375-2.34375 2.24609-5.32227-0.146484-7.71484l-3.85742-3.80859c-2.39258-2.39258-4.24805-3.17383-6.64062-2.97852l-2.88086 0.244141-3.22266-3.17383 1.2207-5.61523c0.634766-2.83203-0.146484-5.0293-3.07617-7.95898l-10.9863-10.9375c-16.6992-16.6016-38.8672-16.2109-53.3203-1.75781Zm7.4707 1.85547c12.1582-8.88672 28.6133-7.37305 39.7461 3.75977l12.1582 12.0605c1.17188 1.17188 1.36719 2.09961 1.02539 3.80859l-1.61133 7.42188 7.51953 7.42188 4.93164-0.292969c1.26953-0.0488281 1.66016 0.0488281 2.63672 1.02539l2.88086 2.88086-12.207 12.207-2.88086-2.88086c-0.976562-0.976562-1.12305-1.36719-1.07422-2.68555l0.341797-4.88281-7.4707-7.42188-7.61719 1.26953c-1.61133 0.341797-2.34375 0.195312-3.56445-0.976562l-10.0098-10.0098c-1.26953-1.17188-1.41602-2.00195-0.634766-3.85742l4.39453-10.4492c-7.8125-7.27539-17.9688-10.4004-28.125-7.42188-0.78125 0.195312-1.07422-0.439453-0.439453-0.976562Z"/>
  </g>
  <text style="stroke:none;fill:black;font-family:sans-serif;font-size:13;font-weight:bold;" transform="matrix(1 0 0 1 1289 1953)">Exporting</text>
  <text style="stroke:none;fill:black;font-family:sans-serif;font-size:13;" transform="matrix(1 0 0 1 1289 1971)">Symbols should be outlined when exporting to ensure the</text>
  <text style="stroke:none;fill:black;font-family:sans-serif;font-size:13;" transform="matrix(1 0 0 1 1289 1989)">design is preserved when submitting to Xcode.</text>
  <text id="template-version" style="stroke:none;fill:black;font-family:sans-serif;font-size:13;text-anchor:end;" transform="matrix(1 0 0 1 3036 1933)">Template v.5.0</text>
  <text style="stroke:none;fill:black;font-family:sans-serif;font-size:13;text-anchor:end;" transform="matrix(1 0 0 1 3036 1951)">Requires Xcode 15 or greater</text>
  <text id="descriptive-name" style="stroke:none;fill:black;font-family:sans-serif;font-size:13;text-anchor:end;" transform="matrix(1 0 0 1 3036 1969)">Generated from </text>
  <text style="stroke:none;fill:black;font-family:sans-serif;font-size:13;text-anchor:end;" transform="matrix(1 0 0 1 3036 1987)">Typeset at 100.0 points</text>
  <text style="stroke:none;fill:black;font-family:sans-serif;font-size:13;" transform="matrix(1 0 0 1 263 726)">Small</text>
  <text style="stroke:none;fill:black;font-family:sans-serif;font-size:13;" transform="matrix(1 0 0 1 263 1156)">Medium</text>
  <text style="stroke:none;fill:black;font-family:sans-serif;font-size:13;" transform="matrix(1 0 0 1 263 1586)">Large</text>
 </g>
 <g id="Guides">
  <g id="H-reference" style="fill:#27AAE1;stroke:none;" transform="matrix(1 0 0 1 339 696)">
   <path d="M0.993654 0L3.63775 0L29.3281-67.1323L30.0303-67.1323L30.0303-70.459L28.1226-70.459ZM11.6885-24.4799L46.9815-24.4799L46.2315-26.7285L12.4385-26.7285ZM55.1196 0L57.7637 0L30.6382-70.459L29.4326-70.459L29.4326-67.1323Z"/>
  </g>
  <line id="Baseline-S" style="fill:none;stroke:#27AAE1;opacity:1;stroke-width:0.5;" x1="263" x2="3036" y1="696" y2="696"/>
  <line id="Capline-S" style="fill:none;stroke:#27AAE1;opacity:1;stroke-width:0.5;" x1="263" x2="3036" y1="625.541" y2="625.541"/>
  <g id="H-reference" style="fill:#27AAE1;stroke:none;" transform="matrix(1 0 0 1 339 1126)">
   <path d="M0.993654 0L3.63775 0L29.3281-67.1323L30.0303-67.1323L30.0303-70.459L28.1226-70.459ZM11.6885-24.4799L46.9815-24.4799L46.2315-26.7285L12.4385-26.7285ZM55.1196 0L57.7637 0L30.6382-70.459L29.4326-70.459L29.4326-67.1323Z"/>
  </g>
  <line id="Baseline-M" style="fill:none;stroke:#27AAE1;opacity:1;stroke-width:0.5;" x1="263" x2="3036" y1="1126" y2="1126"/>
  <line id="Capline-M" style="fill:none;stroke:#27AAE1;opacity:1;stroke-width:0.5;" x1="263" x2="3036" y1="1055.54" y2="1055.54"/>
  <g id="H-reference" style="fill:#27AAE1;stroke:none;" transform="matrix(1 0 0 1 339 1556)">
   <path d="M0.993654 0L3.63775 0L29.3281-67.1323L30.0303-67.1323L30.0303-70.459L28.1226-70.459ZM11.6885-24.4799L46.9815-24.4799L46.2315-26.7285L12.4385-26.7285ZM55.1196 0L57.7637 0L30.6382-70.459L29.4326-70.459L29.4326-67.1323Z"/>
  </g>
  <line id="Baseline-L" style="fill:none;stroke:#27AAE1;opacity:1;stroke-width:0.5;" x1="263" x2="3036" y1="1556" y2="1556"/>
  <line id="Capline-L" style="fill:none;stroke:#27AAE1;opacity:1;stroke-width:0.5;" x1="263" x2="3036" y1="1485.54" y2="1485.54"/>
  <line id="left-margin-Ultralight-S" style="fill:none;stroke:#00AEEF;stroke-width:0.5;opacity:1.0;" x1="509.549" x2="509.549" y1="600.785" y2="720.121"/>
  <line id="right-margin-Ultralight-S" style="fill:none;stroke:#FF3B30;stroke-width:0.5;opacity:1.0;" x1="609.873" x2="609.873" y1="600.785" y2="720.121"/>
  <line id="left-margin-Regular-S" style="fill:none;stroke:#00AEEF;stroke-width:0.5;opacity:1.0;" x1="1397.53" x2="1397.53" y1="600.785" y2="720.121"/>
  <line id="right-margin-Regular-S" style="fill:none;stroke:#FF3B30;stroke-width:0.5;opacity:1.0;" x1="1502.16" x2="1502.16" y1="600.785" y2="720.121"/>
  <line id="left-margin-Black-S" style="fill:none;stroke:#00AEEF;stroke-width:0.5;opacity:1.0;" x1="2877.35" x2="2877.35" y1="600.785" y2="720.121"/>
  <line id="right-margin-Black-S" style="fill:none;stroke:#FF3B30;stroke-width:0.5;opacity:1.0;" x1="2989.45" x2="2989.45" y1="600.785" y2="720.121"/>
 </g>
 <g id="Symbols">
  <g id="Black-S" transform="matrix(1 0 0 1 2877.35 696)">
   <path class="SFSymbolsPreviewWireframe" d="M100.282-12.8923C115.224-12.8923 127.577-25.2947 127.577-40.2361C127.577-55.1775 115.224-67.4822 100.282-67.4822C85.3408-67.4822 72.9873-55.1775 72.9873-40.2361C72.9873-25.2947 85.3408-12.8923 100.282-12.8923ZM100.282-19.24C111.757-19.24 121.23-28.8103 121.23-40.2361C121.23-51.6619 111.757-61.1345 100.282-61.1345C88.8076-61.1345 79.3349-51.6619 79.3349-40.2361C79.3349-28.8103 88.8076-19.24 100.282-19.24ZM100.282-26.1736C97.9384-26.1736 96.3759-27.7361 96.3759-30.031L96.3759-36.281L90.2236-36.281C87.9287-36.281 86.3173-37.8435 86.3173-40.1873C86.3173-42.531 87.831-44.0935 90.2236-44.0935L96.3759-44.0935L96.3759-50.197C96.3759-52.4919 97.9384-54.1033 100.282-54.1033C102.626-54.1033 104.188-52.5896 104.188-50.197L104.188-44.0935L110.39-44.0935C112.685-44.0935 114.247-42.531 114.247-40.1873C114.247-37.8435 112.685-36.281 110.39-36.281L104.188-36.281L104.188-30.031C104.188-27.7361 102.626-26.1736 100.282-26.1736ZM73.3887 10.3516C76.3184 10.3516 78.1738 8.39844 78.1738 5.17578L78.1738-5.37109L83.6914-5.37109C93.2617-5.37109 102.344-13.4766 102.344-25.4883L102.344-57.1289C102.344-69.1406 94.2383-77.2461 82.2266-77.2461L29.8828-77.2461C17.8711-77.2461 9.76562-69.1406 9.76562-57.1289L9.76562-25.4883C9.76562-13.4766 17.8711-5.37109 29.8828-5.37109L52.2461-5.37109L67.1875 7.51953C69.6289 9.61914 71.3867 10.3516 73.3887 10.3516ZM45.721 1.18975C68.8672 1.18975 87.7157-17.6588 87.7157-40.8051C87.7157-63.9512 68.8672-82.7998 45.721-82.7998C22.5749-82.7998 3.72622-63.9512 3.72622-40.8051C3.72622-17.6588 22.5748 1.18975 45.721 1.18975ZM45.721-12.9772C30.3425-12.9772 17.893-25.4265 17.893-40.8051C17.893-56.1835 30.3426-68.6329 45.721-68.6329C61.0995-68.6329 73.5489-56.1835 73.5489-40.8051C73.5489-25.4265 61.0995-12.9772 45.721-12.9772ZM29.4632-26.744L40.887-26.744C42.9384-26.744 43.6706-28.1604 43.6706-29.5763C43.6706-31.0411 42.9384-32.4576 40.887-32.4576L34.6394-32.4576L34.6394-32.7505L38.3978-37.192C41.0821-40.364 43.2313-43.0983 43.2313-47.2495C43.2313-52.7184 39.4715-55.6962 34.3449-55.6962C29.8043-55.6962 25.9958-52.4744 25.9958-48.4216C25.9958-46.5658 27.0701-45.1984 29.0236-45.1984C30.4885-45.1984 31.7096-45.9309 32.2468-47.738C32.5881-48.9575 33.076-50.0802 34.3449-50.0802C35.858-50.0802 36.2478-48.6157 36.2478-47.0543C36.2478-44.5158 34.5883-42.0751 32.3419-39.2427L27.9492-33.6785C26.4348-31.7734 26.0447-30.7969 26.0447-29.6252C26.0447-27.7693 27.2657-26.744 29.4632-26.744ZM55.9735-25.9627C63.3462-25.9627 65.5921-33.7746 65.5921-40.8539C65.5921-47.9332 63.3462-55.7451 55.9735-55.7451C48.6009-55.7451 46.355-47.9332 46.355-40.8539C46.355-33.7746 48.6009-25.9627 55.9735-25.9627ZM55.9735-31.8229C54.4611-31.8229 53.8757-35.0445 53.8757-40.8539C53.8757-46.6634 54.4611-49.8849 55.9735-49.8849C57.486-49.8849 58.0712-46.6634 58.0712-40.8539C58.0712-35.0445 57.486-31.8229 55.9735-31.8229Z"/>
  </g>
  <g id="Regular-S" transform="matrix(1 0 0 1 1397.53 696)">
   <path class="SFSymbolsPreviewWireframe" d="M93.5995-14.7966C107.418-14.7966 118.99-26.3688 118.99-40.1872C118.99-54.1032 107.515-65.5778 93.5995-65.5778C79.6346-65.5778 68.2089-54.1032 68.2089-40.1872C68.2089-26.2223 79.6346-14.7966 93.5995-14.7966ZM93.5995-20.5095C104.244-20.5095 113.277-29.445 113.277-40.1872C113.277-50.9782 104.39-59.8649 93.5995-59.8649C82.8085-59.8649 73.8729-50.9782 73.8729-40.1872C73.8729-29.3473 82.8085-20.5095 93.5995-20.5095ZM93.5995-27.9313C92.037-27.9313 91.0604-28.9567 91.0604-30.4704L91.0604-37.6481L83.8827-37.6481C82.369-37.6481 81.3436-38.6735 81.3436-40.1872C81.3436-41.7009 82.369-42.7263 83.8827-42.7263L91.0604-42.7263L91.0604-49.904C91.0604-51.4177 92.037-52.4431 93.5995-52.4431C95.1131-52.4431 96.1385-51.4177 96.1385-49.904L96.1385-42.7263L103.316-42.7263C104.83-42.7263 105.806-41.7009 105.806-40.1872C105.806-38.6735 104.83-37.6481 103.316-37.6481L96.1385-37.6481L96.1385-30.4704C96.1385-28.9567 95.1131-27.9313 93.5995-27.9313ZM71.3379 7.66602C73.7793 7.66602 75.1465 5.9082 75.1465 3.27148L75.1465-7.91016L76.5625-7.91016C88.5742-7.91016 94.873-14.3555 94.873-26.1719L94.873-54.5898C94.873-66.4062 88.5742-72.9004 76.5625-72.9004L28.0762-72.9004C16.0645-72.9004 9.76562-66.4062 9.76562-54.5898L9.76562-26.1719C9.76562-14.3555 16.0645-7.91016 28.0762-7.91016L52.5879-7.91016L66.4062 4.88281C68.457 6.78711 69.6289 7.66602 71.3379 7.66602ZM42.6512-1.4476C64.1856-1.4476 82.1063-19.3194 82.1063-40.8539C82.1063-62.3883 64.1369-80.2601 42.6024-80.2601C21.1168-80.2601 3.24497-62.3883 3.24497-40.8539C3.24497-19.3194 21.1656-1.4476 42.6512-1.4476ZM42.6512-8.87461C24.9284-8.87461 10.7696-23.0823 10.7696-40.8539C10.7696-58.6254 24.8796-72.8331 42.6024-72.8331C60.374-72.8331 74.6305-58.6254 74.6305-40.8539C74.6305-23.0823 60.4229-8.87461 42.6512-8.87461ZM24.4398-25.3764L37.7684-25.3764C39.2826-25.3764 40.1613-26.3534 40.1613-27.8669C40.1613-29.4782 39.2338-30.4063 37.7684-30.4063L29.1277-30.4063L29.1277-30.6993L34.3024-36.9966C38.3053-41.9269 39.6243-44.7589 39.6243-48.1286C39.6243-53.451 35.9134-57.1614 30.4936-57.1614C25.5135-57.1614 21.6073-53.1093 21.6073-49.1541C21.6073-47.5427 22.5351-46.4194 24.1468-46.4194C25.5628-46.4194 26.442-47.0542 26.8816-48.4705C27.6624-50.8134 28.4923-52.2293 30.4448-52.2293C32.4952-52.2293 33.7641-50.4716 33.7641-47.8357C33.7641-44.76 31.372-41.5379 29.4187-39.0962L23.2189-31.3342C22.3883-30.3081 21.5586-29.234 21.5586-27.8669C21.5586-26.4506 22.4865-25.3764 24.4398-25.3764ZM54.2713-24.5464C62.0347-24.5464 64.4759-32.9444 64.4759-40.8539C64.4759-48.7635 62.0347-57.1614 54.2713-57.1614C46.508-57.1614 44.0666-48.7635 44.0666-40.8539C44.0666-32.9444 46.508-24.5464 54.2713-24.5464ZM54.2713-29.6251C51.5867-29.6251 50.3664-33.9699 50.3664-40.8539C50.3664-47.7379 51.5867-52.0827 54.2713-52.0827C56.956-52.0827 58.2249-47.7379 58.2249-40.8539C58.2249-33.9699 56.956-29.6251 54.2713-29.6251Z"/>
  </g>
  <g id="Ultralight-S" transform="matrix(1 0 0 1 509.549 696)">
   <path class="SFSymbolsPreviewWireframe" d="M89.7632-18.8381C101.402-18.8381 111.113-28.4577 111.113-40.1872C111.113-51.9235 101.454-61.5364 89.7632-61.5364C78.0688-61.5364 68.3686-51.8781 68.3686-40.1872C68.3686-28.4474 78.0688-18.8381 89.7632-18.8381ZM89.7632-21.9172C99.7268-21.9172 108.033-30.1262 108.033-40.1872C108.033-50.2517 99.7818-58.4572 89.7632-58.4572C79.7441-58.4572 71.4443-50.2063 71.4443-40.1872C71.4443-30.1193 79.7441-21.9172 89.7632-21.9172ZM89.7632-28.2946C88.791-28.2946 88.2231-28.9567 88.2231-29.8347L88.2231-38.6926L79.3652-38.6926C78.5781-38.6926 77.8706-39.2184 77.8706-40.1872C77.8706-41.156 78.5781-41.7273 79.3652-41.7273L88.2231-41.7273L88.2231-50.4943C88.2231-51.3269 88.791-52.0344 89.7632-52.0344C90.6865-52.0344 91.2578-51.3269 91.2578-50.4943L91.2578-41.7273L100.07-41.7273C100.903-41.7273 101.562-41.156 101.562-40.1872C101.562-39.2184 100.903-38.6926 100.07-38.6926L91.2578-38.6926L91.2578-29.8347C91.2578-28.9567 90.6865-28.2946 89.7632-28.2946ZM71.4287 4.12405C72.3262 4.12405 73.0122 3.45607 73.0122 2.36329L73.0122-8.68212L76.5625-8.68212C85.1231-8.68212 90.5591-14.1284 90.5591-22.6753L90.5591-56.043C90.5591-64.5899 85.1231-70.0396 76.5625-70.0396L23.7622-70.0396C15.2017-70.0396 9.76562-64.499 9.76562-56.043L9.76562-22.6753C9.76562-14.2192 15.2017-8.68212 23.7622-8.68212L55.6303-8.68212L69.5849 3.20265C70.1826 3.74465 70.7642 4.12405 71.4287 4.12405ZM40.9152-3.62719C61.3595-3.62719 78.1453-20.4095 78.1453-40.8539C78.1453-61.2983 61.3561-78.0806 40.9116-78.0806C20.4254-78.0806 3.68842-61.2983 3.68842-40.8539C3.68842-20.4095 20.4288-3.62719 40.9152-3.62719ZM40.9152-5.87731C21.6027-5.87731 5.90009-21.538 5.90009-40.8539C5.90009-60.1698 21.5992-75.8305 40.9116-75.8305C60.2275-75.8305 75.8917-60.1698 75.8917-40.8539C75.8917-21.538 60.231-5.87731 40.9152-5.87731ZM24.2447-25.3754L37.3479-25.3754C37.9543-25.3754 38.4249-25.8529 38.4249-26.4592C38.4249-27.1179 37.9508-27.592 37.3479-27.592L26.2556-27.592L26.2556-27.7488L33.745-38.2668C36.6602-42.3818 37.7063-45.1684 37.7063-48.3561C37.7063-53.0886 35.1749-56.9357 30.3901-56.9357C25.9541-56.9357 23.0458-52.8376 23.0458-48.7464C23.0458-48.2238 23.3838-47.6452 24.1786-47.6452C24.7326-47.6452 25.1578-47.9624 25.2344-48.5165C25.7434-52.1758 27.254-54.726 30.432-54.726C33.9345-54.726 35.4763-51.2896 35.4763-48.2446C35.4763-45.3953 34.3993-42.9439 31.9472-39.4591L23.4776-27.7031C23.1466-27.2675 22.997-26.8738 22.997-26.4139C22.997-25.7692 23.5164-25.3754 24.2447-25.3754ZM51.4474-24.7722C58.4398-24.7722 60.0193-34.2593 60.0193-40.8539C60.0193-47.4485 58.4398-56.9357 51.4474-56.9357C44.5003-56.9357 42.9209-47.4485 42.9209-40.8539C42.9209-34.2593 44.5003-24.7722 51.4474-24.7722ZM51.4474-26.9922C46.3121-26.9922 45.409-35.4209 45.409-40.8539C45.409-46.287 46.3121-54.7156 51.4474-54.7156C56.6281-54.7156 57.4894-46.287 57.4894-40.8539C57.4894-35.4209 56.6281-26.9922 51.4474-26.9922Z"/>
  </g>
 </g>
 <g id="LayerTree">
  <g class="monochrome-0 multicolor-0:tintColor hierarchical-0:secondary"/>
  <g class="monochrome-1 multicolor-1:white hierarchical-1:primary">
   <g class="shapeGroupLayer-0"/>
   <g class="shapeGroupLayer-1"/>
  </g>
  <g class="monochrome-2 multicolor-2:tintColor hierarchical-2:primary"/>
  <g class="monochrome-3 multicolor-3:systemGreenColor hierarchical-3:primary"/>
  <g class="monochrome-4 multicolor-4:white hierarchical-4:primary"/>
 </g>
</svg>
