<?xml version="1.0" encoding="UTF-8"?>
<!--Generator: Apple Native CoreSVG 232.5-->
<!DOCTYPE svg
PUBLIC "-//W3C//DTD SVG 1.1//EN"
       "http://www.w3.org/Graphics/SVG/1.1/DTD/svg11.dtd">
<svg version="1.1" xmlns="http://www.w3.org/2000/svg" xmlns:xlink="http://www.w3.org/1999/xlink" width="3300" height="2200">
 <!--glyph: "", point size: 100.0, font version: "19.2d2e1", template writer version: "128"-->
 <style>.monochrome-0 {-sfsymbols-motion-group:1;-sfsymbols-indices:0}
.monochrome-1 {opacity:0.0;-sfsymbols-clear-behind:true;-sfsymbols-motion-group:0;-sfsymbols-always-pulses:true}

.multicolor-0:tintColor {-sfsymbols-motion-group:1;-sfsymbols-indices:0}
.multicolor-1:white {-sfsymbols-motion-group:0;-sfsymbols-always-pulses:true}

.hierarchical-0:tertiary {-sfsymbols-motion-group:1;-sfsymbols-indices:0}
.hierarchical-1:primary {-sfsymbols-motion-group:0}

.shapeGroupLayer-0 {-sfsymbols-fill-action:erase;-sfsymbols-indices:1 2}
.shapeGroupLayer-1 {-sfsymbols-fill-action:draw;-sfsymbols-indices:3 4 5}

.SFSymbolsPreviewWireframe {fill:none;opacity:1.0;stroke:black;stroke-width:0.5}
</style>
 <g id="Notes">
  <rect height="2200" id="artboard" style="fill:white;opacity:1" width="3300" x="0" y="0"/>
  <line style="fill:none;stroke:black;opacity:1;stroke-width:0.5;" x1="263" x2="3036" y1="292" y2="292"/>
  <text style="stroke:none;fill:black;font-family:sans-serif;font-size:13;font-weight:bold;" transform="matrix(1 0 0 1 263 322)">Weight/Scale Variations</text>
  <text style="stroke:none;fill:black;font-family:sans-serif;font-size:13;text-anchor:middle;" transform="matrix(1 0 0 1 559.711 322)">Ultralight</text>
  <text style="stroke:none;fill:black;font-family:sans-serif;font-size:13;text-anchor:middle;" transform="matrix(1 0 0 1 856.422 322)">Thin</text>
  <text style="stroke:none;fill:black;font-family:sans-serif;font-size:13;text-anchor:middle;" transform="matrix(1 0 0 1 1153.13 322)">Light</text>
  <text style="stroke:none;fill:black;font-family:sans-serif;font-size:13;text-anchor:middle;" transform="matrix(1 0 0 1 1449.84 322)">Regular</text>
  <text style="stroke:none;fill:black;font-family:sans-serif;font-size:13;text-anchor:middle;" transform="matrix(1 0 0 1 1746.56 322)">Medium</text>
  <text style="stroke:none;fill:black;font-family:sans-serif;font-size:13;text-anchor:middle;" transform="matrix(1 0 0 1 2043.27 322)">Semibold</text>
  <text style="stroke:none;fill:black;font-family:sans-serif;font-size:13;text-anchor:middle;" transform="matrix(1 0 0 1 2339.98 322)">Bold</text>
  <text style="stroke:none;fill:black;font-family:sans-serif;font-size:13;text-anchor:middle;" transform="matrix(1 0 0 1 2636.69 322)">Heavy</text>
  <text style="stroke:none;fill:black;font-family:sans-serif;font-size:13;text-anchor:middle;" transform="matrix(1 0 0 1 2933.4 322)">Black</text>
  <line style="fill:none;stroke:black;opacity:1;stroke-width:0.5;" x1="263" x2="3036" y1="1903" y2="1903"/>
  <g transform="matrix(0.2 0 0 0.2 263 1933)">
   <path d="m46.2402 4.15039c21.5332 0 39.4531-17.8711 39.4531-39.4043s-17.9688-39.4043-39.502-39.4043c-21.4844 0-39.3555 17.8711-39.3555 39.4043s17.9199 39.4043 39.4043 39.4043Zm0-7.42188c-17.7246 0-31.8848-14.209-31.8848-31.9824s14.1113-31.9824 31.8359-31.9824c17.7734 0 32.0312 14.209 32.0312 31.9824s-14.209 31.9824-31.9824 31.9824Zm-17.9688-31.9824c0 2.14844 1.51367 3.61328 3.75977 3.61328h10.498v10.5957c0 2.19727 1.46484 3.71094 3.61328 3.71094 2.24609 0 3.71094-1.51367 3.71094-3.71094v-10.5957h10.5957c2.19727 0 3.71094-1.46484 3.71094-3.61328 0-2.19727-1.51367-3.71094-3.71094-3.71094h-10.5957v-10.5469c0-2.24609-1.46484-3.75977-3.71094-3.75977-2.14844 0-3.61328 1.51367-3.61328 3.75977v10.5469h-10.498c-2.24609 0-3.75977 1.51367-3.75977 3.71094Z"/>
  </g>
  <g transform="matrix(0.2 0 0 0.2 281.506 1933)">
   <path d="m58.5449 14.5508c27.2461 0 49.8047-22.6074 49.8047-49.8047 0-27.2461-22.6074-49.8047-49.8535-49.8047-27.1973 0-49.7559 22.5586-49.7559 49.8047 0 27.1973 22.6074 49.8047 49.8047 49.8047Zm0-8.30078c-23.0469 0-41.4551-18.457-41.4551-41.5039s18.3594-41.5039 41.4062-41.5039 41.5527 18.457 41.5527 41.5039-18.457 41.5039-41.5039 41.5039Zm-22.6562-41.5039c0 2.39258 1.66016 4.00391 4.15039 4.00391h14.3555v14.4043c0 2.44141 1.66016 4.15039 4.05273 4.15039 2.44141 0 4.15039-1.66016 4.15039-4.15039v-14.4043h14.4043c2.44141 0 4.15039-1.61133 4.15039-4.00391 0-2.44141-1.70898-4.15039-4.15039-4.15039h-14.4043v-14.3555c0-2.49023-1.70898-4.19922-4.15039-4.19922-2.39258 0-4.05273 1.70898-4.05273 4.19922v14.3555h-14.3555c-2.49023 0-4.15039 1.70898-4.15039 4.15039Z"/>
  </g>
  <g transform="matrix(0.2 0 0 0.2 304.924 1933)">
   <path d="m74.8535 28.3203c34.8145 0 63.623-28.8086 63.623-63.5742 0-34.8145-28.8574-63.623-63.6719-63.623-34.7656 0-63.5254 28.8086-63.5254 63.623 0 34.7656 28.8086 63.5742 63.5742 63.5742Zm0-9.08203c-30.1758 0-54.4434-24.3164-54.4434-54.4922 0-30.2246 24.2188-54.4922 54.3945-54.4922 30.2246 0 54.541 24.2676 54.541 54.4922 0 30.1758-24.2676 54.4922-54.4922 54.4922Zm-28.8574-54.4922c0 2.58789 1.85547 4.39453 4.58984 4.39453h19.7266v19.7754c0 2.68555 1.85547 4.58984 4.44336 4.58984 2.68555 0 4.54102-1.85547 4.54102-4.58984v-19.7754h19.7754c2.68555 0 4.58984-1.80664 4.58984-4.39453 0-2.73438-1.85547-4.58984-4.58984-4.58984h-19.7754v-19.7266c0-2.73438-1.85547-4.63867-4.54102-4.63867-2.58789 0-4.44336 1.9043-4.44336 4.63867v19.7266h-19.7266c-2.73438 0-4.58984 1.85547-4.58984 4.58984Z"/>
  </g>
  <text style="stroke:none;fill:black;font-family:sans-serif;font-size:13;font-weight:bold;" transform="matrix(1 0 0 1 263 1953)">Design Variations</text>
  <text style="stroke:none;fill:black;font-family:sans-serif;font-size:13;" transform="matrix(1 0 0 1 263 1971)">Symbols are supported in up to nine weights and three scales.</text>
  <text style="stroke:none;fill:black;font-family:sans-serif;font-size:13;" transform="matrix(1 0 0 1 263 1989)">For optimal layout with text and other symbols, vertically align</text>
  <text style="stroke:none;fill:black;font-family:sans-serif;font-size:13;" transform="matrix(1 0 0 1 263 2007)">symbols with the adjacent text.</text>
  <line style="fill:none;stroke:#00AEEF;stroke-width:0.5;opacity:1.0;" x1="776" x2="776" y1="1919" y2="1933"/>
  <g transform="matrix(0.2 0 0 0.2 776 1933)">
   <path d="m16.5527 0.78125c2.58789 0 3.85742-0.976562 4.78516-3.71094l6.29883-17.2363h28.8086l6.29883 17.2363c0.927734 2.73438 2.19727 3.71094 4.73633 3.71094 2.58789 0 4.24805-1.5625 4.24805-4.00391 0-0.830078-0.146484-1.61133-0.537109-2.63672l-22.9004-60.9863c-1.12305-2.97852-3.125-4.49219-6.25-4.49219-3.02734 0-5.07812 1.46484-6.15234 4.44336l-22.9004 61.084c-0.390625 1.02539-0.537109 1.80664-0.537109 2.63672 0 2.44141 1.5625 3.95508 4.10156 3.95508Zm13.4766-28.3691 11.8652-32.8613h0.244141l11.8652 32.8613Z"/>
  </g>
  <line style="fill:none;stroke:#00AEEF;stroke-width:0.5;opacity:1.0;" x1="792.836" x2="792.836" y1="1919" y2="1933"/>
  <text style="stroke:none;fill:black;font-family:sans-serif;font-size:13;font-weight:bold;" transform="matrix(1 0 0 1 776 1953)">Margins</text>
  <text style="stroke:none;fill:black;font-family:sans-serif;font-size:13;" transform="matrix(1 0 0 1 776 1971)">Leading and trailing margins on the left and right side of each symbol</text>
  <text style="stroke:none;fill:black;font-family:sans-serif;font-size:13;" transform="matrix(1 0 0 1 776 1989)">can be adjusted by modifying the x-location of the margin guidelines.</text>
  <text style="stroke:none;fill:black;font-family:sans-serif;font-size:13;" transform="matrix(1 0 0 1 776 2007)">Modifications are automatically applied proportionally to all</text>
  <text style="stroke:none;fill:black;font-family:sans-serif;font-size:13;" transform="matrix(1 0 0 1 776 2025)">scales and weights.</text>
  <g transform="matrix(0.2 0 0 0.2 1289 1933)">
   <path d="m14.209 9.32617 8.49609 8.54492c4.29688 4.3457 9.22852 4.05273 13.8672-1.07422l53.4668-58.9355-4.83398-4.88281-53.0762 58.3984c-1.75781 2.00195-3.41797 2.49023-5.76172 0.146484l-5.85938-5.81055c-2.34375-2.29492-1.80664-4.00391 0.195312-5.81055l57.373-54.0039-4.88281-4.83398-57.959 54.4434c-4.93164 4.58984-5.32227 9.47266-1.02539 13.8184Zm32.0801-90.9668c-2.09961 2.05078-2.24609 4.93164-1.07422 6.88477 1.17188 1.80664 3.4668 2.97852 6.68945 2.14844 7.32422-1.70898 14.9414-2.00195 22.0703 2.68555l-2.92969 7.27539c-1.70898 4.15039-0.830078 7.08008 1.85547 9.81445l11.4746 11.5723c2.44141 2.44141 4.49219 2.53906 7.32422 2.05078l5.32227-0.976562 3.32031 3.36914-0.195312 2.7832c-0.195312 2.49023 0.439453 4.39453 2.88086 6.78711l3.80859 3.71094c2.39258 2.39258 5.46875 2.53906 7.8125 0.195312l14.5508-14.5996c2.34375-2.34375 2.24609-5.32227-0.146484-7.71484l-3.85742-3.80859c-2.39258-2.39258-4.24805-3.17383-6.64062-2.97852l-2.88086 0.244141-3.22266-3.17383 1.2207-5.61523c0.634766-2.83203-0.146484-5.0293-3.07617-7.95898l-10.9863-10.9375c-16.6992-16.6016-38.8672-16.2109-53.3203-1.75781Zm7.4707 1.85547c12.1582-8.88672 28.6133-7.37305 39.7461 3.75977l12.1582 12.0605c1.17188 1.17188 1.36719 2.09961 1.02539 3.80859l-1.61133 7.42188 7.51953 7.42188 4.93164-0.292969c1.26953-0.0488281 1.66016 0.0488281 2.63672 1.02539l2.88086 2.88086-12.207 12.207-2.88086-2.88086c-0.976562-0.976562-1.12305-1.36719-1.07422-2.68555l0.341797-4.88281-7.4707-7.42188-7.61719 1.26953c-1.61133 0.341797-2.34375 0.195312-3.56445-0.976562l-10.0098-10.0098c-1.26953-1.17188-1.41602-2.00195-0.634766-3.85742l4.39453-10.4492c-7.8125-7.27539-17.9688-10.4004-28.125-7.42188-0.78125 0.195312-1.07422-0.439453-0.439453-0.976562Z"/>
  </g>
  <text style="stroke:none;fill:black;font-family:sans-serif;font-size:13;font-weight:bold;" transform="matrix(1 0 0 1 1289 1953)">Exporting</text>
  <text style="stroke:none;fill:black;font-family:sans-serif;font-size:13;" transform="matrix(1 0 0 1 1289 1971)">Symbols should be outlined when exporting to ensure the</text>
  <text style="stroke:none;fill:black;font-family:sans-serif;font-size:13;" transform="matrix(1 0 0 1 1289 1989)">design is preserved when submitting to Xcode.</text>
  <text id="template-version" style="stroke:none;fill:black;font-family:sans-serif;font-size:13;text-anchor:end;" transform="matrix(1 0 0 1 3036 1933)">Template v.5.0</text>
  <text style="stroke:none;fill:black;font-family:sans-serif;font-size:13;text-anchor:end;" transform="matrix(1 0 0 1 3036 1951)">Requires Xcode 15 or greater</text>
  <text id="descriptive-name" style="stroke:none;fill:black;font-family:sans-serif;font-size:13;text-anchor:end;" transform="matrix(1 0 0 1 3036 1969)">Generated from bubble.right.fill</text>
  <text style="stroke:none;fill:black;font-family:sans-serif;font-size:13;text-anchor:end;" transform="matrix(1 0 0 1 3036 1987)">Typeset at 100.0 points</text>
  <text style="stroke:none;fill:black;font-family:sans-serif;font-size:13;" transform="matrix(1 0 0 1 263 726)">Small</text>
  <text style="stroke:none;fill:black;font-family:sans-serif;font-size:13;" transform="matrix(1 0 0 1 263 1156)">Medium</text>
  <text style="stroke:none;fill:black;font-family:sans-serif;font-size:13;" transform="matrix(1 0 0 1 263 1586)">Large</text>
 </g>
 <g id="Guides">
  <g id="H-reference" style="fill:#27AAE1;stroke:none;" transform="matrix(1 0 0 1 339 696)">
   <path d="M0.993654 0L3.63775 0L29.3281-67.1323L30.0303-67.1323L30.0303-70.459L28.1226-70.459ZM11.6885-24.4799L46.9815-24.4799L46.2315-26.7285L12.4385-26.7285ZM55.1196 0L57.7637 0L30.6382-70.459L29.4326-70.459L29.4326-67.1323Z"/>
  </g>
  <line id="Baseline-S" style="fill:none;stroke:#27AAE1;opacity:1;stroke-width:0.5;" x1="263" x2="3036" y1="696" y2="696"/>
  <line id="Capline-S" style="fill:none;stroke:#27AAE1;opacity:1;stroke-width:0.5;" x1="263" x2="3036" y1="625.541" y2="625.541"/>
  <g id="H-reference" style="fill:#27AAE1;stroke:none;" transform="matrix(1 0 0 1 339 1126)">
   <path d="M0.993654 0L3.63775 0L29.3281-67.1323L30.0303-67.1323L30.0303-70.459L28.1226-70.459ZM11.6885-24.4799L46.9815-24.4799L46.2315-26.7285L12.4385-26.7285ZM55.1196 0L57.7637 0L30.6382-70.459L29.4326-70.459L29.4326-67.1323Z"/>
  </g>
  <line id="Baseline-M" style="fill:none;stroke:#27AAE1;opacity:1;stroke-width:0.5;" x1="263" x2="3036" y1="1126" y2="1126"/>
  <line id="Capline-M" style="fill:none;stroke:#27AAE1;opacity:1;stroke-width:0.5;" x1="263" x2="3036" y1="1055.54" y2="1055.54"/>
  <g id="H-reference" style="fill:#27AAE1;stroke:none;" transform="matrix(1 0 0 1 339 1556)">
   <path d="M0.993654 0L3.63775 0L29.3281-67.1323L30.0303-67.1323L30.0303-70.459L28.1226-70.459ZM11.6885-24.4799L46.9815-24.4799L46.2315-26.7285L12.4385-26.7285ZM55.1196 0L57.7637 0L30.6382-70.459L29.4326-70.459L29.4326-67.1323Z"/>
  </g>
  <line id="Baseline-L" style="fill:none;stroke:#27AAE1;opacity:1;stroke-width:0.5;" x1="263" x2="3036" y1="1556" y2="1556"/>
  <line id="Capline-L" style="fill:none;stroke:#27AAE1;opacity:1;stroke-width:0.5;" x1="263" x2="3036" y1="1485.54" y2="1485.54"/>
  <line id="left-margin-Ultralight-S" style="fill:none;stroke:#00AEEF;stroke-width:0.5;opacity:1.0;" x1="509.549" x2="509.549" y1="600.785" y2="720.121"/>
  <line id="right-margin-Ultralight-S" style="fill:none;stroke:#00AEEF;stroke-width:0.5;opacity:1.0;" x1="609.873" x2="609.873" y1="600.785" y2="720.121"/>
  <line id="left-margin-Regular-S" style="fill:none;stroke:#00AEEF;stroke-width:0.5;opacity:1.0;" x1="1397.53" x2="1397.53" y1="600.785" y2="720.121"/>
  <line id="right-margin-Regular-S" style="fill:none;stroke:#00AEEF;stroke-width:0.5;opacity:1.0;" x1="1502.16" x2="1502.16" y1="600.785" y2="720.121"/>
  <line id="left-margin-Black-S" style="fill:none;stroke:#00AEEF;stroke-width:0.5;opacity:1.0;" x1="2877.35" x2="2877.35" y1="600.785" y2="720.121"/>
  <line id="right-margin-Black-S" style="fill:none;stroke:#00AEEF;stroke-width:0.5;opacity:1.0;" x1="2989.45" x2="2989.45" y1="600.785" y2="720.121"/>
 </g>
 <g id="Symbols">
  <g id="Black-S" transform="matrix(1 0 0 1 2877.35 696)">
   <path class="SFSymbolsPreviewWireframe" d="M73.3887 10.3516C76.3184 10.3516 78.1738 8.39844 78.1738 5.17578L78.1738-5.37109L83.6914-5.37109C93.2617-5.37109 102.344-13.4766 102.344-25.4883L102.344-57.1289C102.344-69.1406 94.2383-77.2461 82.2266-77.2461L29.8828-77.2461C17.8711-77.2461 9.76562-69.1406 9.76562-57.1289L9.76562-25.4883C9.76562-13.4766 17.8711-5.37109 29.8828-5.37109L52.2461-5.37109L67.1875 7.51953C69.6289 9.61914 71.3867 10.3516 73.3887 10.3516ZM56.0528 1.18711C79.1974 1.18711 98.045-17.6605 98.045-40.8051C98.045-63.9496 79.1974-82.7973 56.0528-82.7973C32.9083-82.7973 14.0606-63.9496 14.0606-40.8051C14.0606-17.6605 32.9083 1.18711 56.0528 1.18711ZM56.0528-12.9731C40.672-12.9731 28.2208-25.4242 28.2208-40.8051C28.2208-56.1859 40.672-68.6371 56.0528-68.6371C71.4337-68.6371 83.8849-56.1859 83.8849-40.8051C83.8849-25.4242 71.4337-12.9731 56.0528-12.9731ZM46.8731-26.2543C48.9727-26.2543 50.6329-27.9145 50.6329-30.0141L50.6329-51.2055C50.6329-53.9398 48.9727-55.4047 46.2384-55.4047C44.2364-55.4047 42.9181-54.6723 41.502-53.598L38.7188-51.4496C37.5958-50.6195 37.1075-49.7406 37.1075-48.5688C37.1075-46.6645 38.4259-45.932 39.5489-45.932C40.2325-45.932 40.7208-46.1273 41.3556-46.6156L43.1134-47.9828L43.1134-30.0141C43.1134-27.9145 44.7735-26.2543 46.8731-26.2543ZM61.4239-36.7035C64.2559-36.7035 65.8185-38.8031 66.4044-41.1957L66.4532-41.1957C66.4532-40.4633 66.4532-39.682 66.4532-38.9496C66.4532-33.8227 65.5255-31.6254 64.1095-31.6254C63.377-31.6254 62.9864-32.016 62.4005-33.1391C61.6681-34.5551 60.7403-35.141 59.2755-35.141C57.0782-35.141 56.297-33.6762 56.297-32.1137C56.297-31.723 56.3458-31.0395 56.4923-30.6C57.4688-27.3285 60.4474-25.9125 63.8165-25.9125C71.2872-25.9125 73.4845-33.432 73.4845-40.9027C73.4845-47.2504 71.4825-55.6977 63.9142-55.6977C58.2501-55.6977 55.3204-51.0102 55.3204-45.6391C55.3204-41.1469 57.0294-36.7035 61.4239-36.7035ZM64.0606-41.8305C62.9376-41.8305 62.3028-43.2953 62.3028-45.8832C62.3028-48.4711 62.9376-49.8871 64.0606-49.8871C65.1837-49.8871 65.8185-48.4223 65.8185-45.7367C65.8185-43.2465 65.1837-41.8305 64.0606-41.8305Z"/>
  </g>
  <g id="Regular-S" transform="matrix(1 0 0 1 1397.53 696)">
   <path class="SFSymbolsPreviewWireframe" d="M71.3379 7.66602C73.7793 7.66602 75.1465 5.9082 75.1465 3.27148L75.1465-7.91016L76.5625-7.91016C88.5742-7.91016 94.873-14.3555 94.873-26.1719L94.873-54.5898C94.873-66.4062 88.5742-72.9004 76.5625-72.9004L28.0762-72.9004C16.0645-72.9004 9.76562-66.4062 9.76562-54.5898L9.76562-26.1719C9.76562-14.3555 16.0645-7.91016 28.0762-7.91016L52.5879-7.91016L66.4062 4.88281C68.457 6.78711 69.6289 7.66602 71.3379 7.66602ZM52.2945-1.44961C73.8277-1.44961 91.7477-19.3207 91.7477-40.8539C91.7477-62.3871 73.7789-80.2582 52.2457-80.2582C30.7613-80.2582 12.8903-62.3871 12.8903-40.8539C12.8903-19.3207 30.8102-1.44961 52.2945-1.44961ZM52.2945-8.87148C34.5699-8.87148 20.4098-23.0805 20.4098-40.8539C20.4098-58.6273 34.5211-72.8363 52.2457-72.8363C70.0191-72.8363 84.277-58.6273 84.277-40.8539C84.277-23.0805 70.068-8.87148 52.2945-8.87148ZM41.7477-24.9359C43.4078-24.9359 44.8238-26.352 44.8238-28.1098L44.8238-53.3051C44.8238-55.6 43.4566-56.8695 41.2105-56.8695C39.4039-56.8695 37.9391-55.8441 36.9625-55.1117L33.0074-52.0844C32.275-51.5473 31.6402-50.6684 31.6402-49.5453C31.6402-48.227 32.568-47.2992 33.8375-47.2992C34.5211-47.2992 34.9117-47.4945 35.3512-47.8363L38.5738-50.4242L38.5738-28.1098C38.5738-26.352 39.9898-24.9359 41.7477-24.9359ZM58.2516-36.0688C61.2301-36.0688 63.5738-37.973 64.5016-41.1957L64.6481-41.1957C64.6481-41.0492 64.6481-40.9027 64.6481-40.8051C64.6481-36.85 64.2086-29.5746 60.2047-29.5746C58.691-29.5746 57.6656-30.6 56.982-32.016C56.3961-33.2855 55.5172-33.8715 54.2477-33.8715C52.441-33.8715 51.7086-32.6508 51.7086-31.2836C51.7086-30.7953 51.8063-30.3559 51.9039-29.9164C52.6852-26.5473 56.152-24.5941 60.107-24.5941C68.1148-24.5941 70.5074-33.0902 70.5074-41.098C70.5074-48.3246 68.1148-57.0648 60.1559-57.0648C54.1988-57.0648 50.6832-52.182 50.6832-46.0785C50.6832-40.9516 53.1734-36.0688 58.2516-36.0688ZM60.2535-40.7562C57.6168-40.7562 56.6402-43.7836 56.6402-46.3715C56.6402-49.0082 57.8121-52.0844 60.2535-52.0844C62.8902-52.0844 63.8668-49.0082 63.8668-46.3715C63.8668-43.6371 62.7926-40.7562 60.2535-40.7562Z"/>
  </g>
  <g id="Ultralight-S" transform="matrix(1 0 0 1 509.549 696)">
   <path class="SFSymbolsPreviewWireframe" d="M71.4287 4.12405C72.3262 4.12405 73.0122 3.45607 73.0122 2.36329L73.0122-8.68212L76.5625-8.68212C85.1231-8.68212 90.5591-14.1284 90.5591-22.6753L90.5591-56.043C90.5591-64.5899 85.1231-70.0396 76.5625-70.0396L23.7622-70.0396C15.2017-70.0396 9.76562-64.499 9.76562-56.043L9.76562-22.6753C9.76562-14.2192 15.2017-8.68212 23.7622-8.68212L55.6303-8.68212L69.5849 3.20265C70.1826 3.74465 70.7642 4.12405 71.4287 4.12405ZM50.161-3.62928C70.6043-3.62928 87.389-20.4105 87.389-40.8539C87.389-61.2973 70.6009-78.0785 50.1575-78.0785C29.6722-78.0785 12.9363-61.2973 12.9363-40.8539C12.9363-20.4105 29.6756-3.62928 50.161-3.62928ZM50.161-5.87444C30.847-5.87444 15.1429-21.5365 15.1429-40.8539C15.1429-60.1713 30.8436-75.8334 50.1575-75.8334C69.4749-75.8334 85.1404-60.1713 85.1404-40.8539C85.1404-21.5365 69.4783-5.87444 50.161-5.87444ZM40.6131-25.0268C41.2742-25.0268 41.8729-25.6254 41.8729-26.2934L41.8729-55.3031C41.8729-56.0541 41.2777-56.6425 40.5301-56.6425C39.7679-56.6425 39.2112-56.2528 38.7342-55.8383L33.326-51.4032C33.0023-51.1386 32.867-50.85 32.867-50.4081C32.867-49.8617 33.2044-49.3881 33.8382-49.3881C34.1585-49.3881 34.3221-49.4926 34.5345-49.6527L39.3465-53.6029L39.3465-26.2934C39.3465-25.6254 39.9451-25.0268 40.6131-25.0268ZM55.3006-36.0688C59.0057-36.0688 61.3494-38.8358 62.0501-42.4672L62.1966-42.4672C62.1966-42.2299 62.1966-42.038 62.1966-41.7587C62.1966-36.4413 61.3939-27.0771 55.6644-27.0771C53.0609-27.0771 51.4906-28.9652 50.6708-31.7436C50.3573-32.6952 49.9779-33.0087 49.4803-33.0087C48.7181-33.0087 48.349-32.5146 48.349-31.8285C48.349-31.4765 48.4466-30.9462 48.6351-30.4159C49.6434-26.956 52.2928-24.8212 55.703-24.8212C62.8026-24.8212 64.5594-34.4525 64.5594-41.5067C64.5594-48.5971 62.5301-56.9286 55.7972-56.9286C50.6121-56.9286 47.7777-51.9096 47.7777-46.2147C47.7777-41.0424 50.2679-36.0688 55.3006-36.0688ZM55.804-38.2133C51.9867-38.2133 50.1473-42.3759 50.1473-46.2353C50.1473-50.2343 52.0003-54.7181 55.804-54.7181C59.6668-54.7181 61.6424-50.1434 61.6424-46.2353C61.6424-42.2748 59.4784-38.2133 55.804-38.2133Z"/>
  </g>
 </g>
 <g id="LayerTree">
  <g class="monochrome-0 multicolor-0:tintColor hierarchical-0:tertiary"/>
  <g class="monochrome-1 multicolor-1:white hierarchical-1:primary">
   <g class="shapeGroupLayer-0"/>
   <g class="shapeGroupLayer-1"/>
  </g>
 </g>
</svg>
